HIERARCHY
ROOT Hips
{
  OFFSET -3.78466 98.3962 -1.17642
  CHANNELS 6 Xposition Yposition Zposition Zrotation Xrotation Yrotation
  JOINT Spine
  {
    OFFSET 0 10.1816 0.1315
    CHANNELS 6 Xposition Yposition Zposition Zrotation Xrotation Yrotation
    JOINT Spine1
    {
      OFFSET 0 10.0835 -1.0008
      CHANNELS 6 Xposition Yposition Zposition Zrotation Xrotation Yrotation
      JOINT Spine2
      {
        OFFSET 0 9.1 -1.3734
        CHANNELS 6 Xposition Yposition Zposition Zrotation Xrotation Yrotation
        JOINT Neck
        {
          OFFSET 0 16.6717 -2.5162
          CHANNELS 6 Xposition Yposition Zposition Zrotation Xrotation Yrotation
          JOINT Head
          {
            OFFSET 0 9.6179 1.685
            CHANNELS 6 Xposition Yposition Zposition Zrotation Xrotation Yrotation
            JOINT HeadTop_End
            {
              OFFSET 0 17.8152 2.585
              CHANNELS 6 Xposition Yposition Zposition Zrotation Xrotation Yrotation
              End Site
              {
                OFFSET 0 0 0
              }
            }
            JOINT LeftEye
            {
              OFFSET 3.0676 6.4095 9.2836
              CHANNELS 6 Xposition Yposition Zposition Zrotation Xrotation Yrotation
              End Site
              {
                OFFSET 0 0 0
              }
            }
            JOINT RightEye
            {
              OFFSET -3.0676 6.4095 9.2835
              CHANNELS 6 Xposition Yposition Zposition Zrotation Xrotation Yrotation
              End Site
              {
                OFFSET 0 0 0
              }
            }
          }
        }
        JOINT LeftShoulder
        {
          OFFSET 4.5704 10.946 -2.628
          CHANNELS 6 Xposition Yposition Zposition Zrotation Xrotation Yrotation
          JOINT LeftArm
          {
            OFFSET 10.5924 -0.5246 -2.2321
            CHANNELS 6 Xposition Yposition Zposition Zrotation Xrotation Yrotation
            JOINT LeftForeArm
            {
              OFFSET 27.8415 -0.0001 0
              CHANNELS 6 Xposition Yposition Zposition Zrotation Xrotation Yrotation
              JOINT LeftHand
              {
                OFFSET 28.3288 0 0
                CHANNELS 6 Xposition Yposition Zposition Zrotation Xrotation Yrotation
                JOINT LeftHandThumb1
                {
                  OFFSET 2.4661 -1.575 2.6824
                  CHANNELS 6 Xposition Yposition Zposition Zrotation Xrotation Yrotation
                  JOINT LeftHandThumb2
                  {
                    OFFSET 3.2298 -1.8647 1.8647
                    CHANNELS 6 Xposition Yposition Zposition Zrotation Xrotation Yrotation
                    JOINT LeftHandThumb3
                    {
                      OFFSET 2.6526 -1.5315 1.5315
                      CHANNELS 6 Xposition Yposition Zposition Zrotation Xrotation Yrotation
                      End Site
                      {
                        OFFSET 1.9546 -1.1285 1.1285
                      }
                    }
                  }
                }
                JOINT LeftHandIndex1
                {
                  OFFSET 9.1093 -0.5171 2.2601
                  CHANNELS 6 Xposition Yposition Zposition Zrotation Xrotation Yrotation
                  JOINT LeftHandIndex2
                  {
                    OFFSET 3.6764 0 0
                    CHANNELS 6 Xposition Yposition Zposition Zrotation Xrotation Yrotation
                    JOINT LeftHandIndex3
                    {
                      OFFSET 2.8831 0 0
                      CHANNELS 6 Xposition Yposition Zposition Zrotation Xrotation Yrotation
                      End Site
                      {
                        OFFSET 2.3927 0 0
                      }
                    }
                  }
                }
                JOINT LeftHandMiddle1
                {
                  OFFSET 9.5334 0 0
                  CHANNELS 6 Xposition Yposition Zposition Zrotation Xrotation Yrotation
                  JOINT LeftHandMiddle2
                  {
                    OFFSET 3.6982 0 0
                    CHANNELS 6 Xposition Yposition Zposition Zrotation Xrotation Yrotation
                    JOINT LeftHandMiddle3
                    {
                      OFFSET 2.9509 0 0
                      CHANNELS 6 Xposition Yposition Zposition Zrotation Xrotation Yrotation
                      End Site
                      {
                        OFFSET 2.8339 0 0
                      }
                    }
                  }
                }
                JOINT LeftHandRing1
                {
                  OFFSET 9.1045 -0.0439 -1.8651
                  CHANNELS 6 Xposition Yposition Zposition Zrotation Xrotation Yrotation
                  JOINT LeftHandRing2
                  {
                    OFFSET 3.154 0 0
                    CHANNELS 6 Xposition Yposition Zposition Zrotation Xrotation Yrotation
                    JOINT LeftHandRing3
                    {
                      OFFSET 2.9377 0 0
                      CHANNELS 6 Xposition Yposition Zposition Zrotation Xrotation Yrotation
                      End Site
                      {
                        OFFSET 2.6475 0 0
                      }
                    }
                  }
                }
                JOINT LeftHandPinky1
                {
                  OFFSET 8.0778 -0.4887 -3.8061
                  CHANNELS 6 Xposition Yposition Zposition Zrotation Xrotation Yrotation
                  JOINT LeftHandPinky2
                  {
                    OFFSET 3.6 0 0
                    CHANNELS 6 Xposition Yposition Zposition Zrotation Xrotation Yrotation
                    JOINT LeftHandPinky3
                    {
                      OFFSET 2.1142 0 0
                      CHANNELS 6 Xposition Yposition Zposition Zrotation Xrotation Yrotation
                      End Site
                      {
                        OFFSET 1.9757 0 0
                      }
                    }
                  }
                }
              }
            }
          }
        }
        JOINT RightShoulder
        {
          OFFSET -4.57 10.9462 -2.628
          CHANNELS 6 Xposition Yposition Zposition Zrotation Xrotation Yrotation
          JOINT RightArm
          {
            OFFSET -10.5928 -0.5248 -2.2321
            CHANNELS 6 Xposition Yposition Zposition Zrotation Xrotation Yrotation
            JOINT RightForeArm
            {
              OFFSET -27.8415 0 0
              CHANNELS 6 Xposition Yposition Zposition Zrotation Xrotation Yrotation
              JOINT RightHand
              {
                OFFSET -28.3288 0 0.0001
                CHANNELS 6 Xposition Yposition Zposition Zrotation Xrotation Yrotation
                JOINT RightHandPinky1
                {
                  OFFSET -8.0767 -0.4885 -3.806
                  CHANNELS 6 Xposition Yposition Zposition Zrotation Xrotation Yrotation
                  JOINT RightHandPinky2
                  {
                    OFFSET -3.6 0 0.0001
                    CHANNELS 6 Xposition Yposition Zposition Zrotation Xrotation Yrotation
                    JOINT RightHandPinky3
                    {
                      OFFSET -2.1142 0 0
                      CHANNELS 6 Xposition Yposition Zposition Zrotation Xrotation Yrotation
                      End Site
                      {
                        OFFSET -1.9757 0 0
                      }
                    }
                  }
                }
                JOINT RightHandRing1
                {
                  OFFSET -9.1036 -0.0439 -1.8651
                  CHANNELS 6 Xposition Yposition Zposition Zrotation Xrotation Yrotation
                  JOINT RightHandRing2
                  {
                    OFFSET -3.154 0 0
                    CHANNELS 6 Xposition Yposition Zposition Zrotation Xrotation Yrotation
                    JOINT RightHandRing3
                    {
                      OFFSET -2.9377 0 0
                      CHANNELS 6 Xposition Yposition Zposition Zrotation Xrotation Yrotation
                      End Site
                      {
                        OFFSET -2.6475 0 0
                      }
                    }
                  }
                }
                JOINT RightHandMiddle1
                {
                  OFFSET -9.5325 0 0
                  CHANNELS 6 Xposition Yposition Zposition Zrotation Xrotation Yrotation
                  JOINT RightHandMiddle2
                  {
                    OFFSET -3.6982 0 0
                    CHANNELS 6 Xposition Yposition Zposition Zrotation Xrotation Yrotation
                    JOINT RightHandMiddle3
                    {
                      OFFSET -2.9509 0 0
                      CHANNELS 6 Xposition Yposition Zposition Zrotation Xrotation Yrotation
                      End Site
                      {
                        OFFSET -2.8339 0 0.0001
                      }
                    }
                  }
                }
                JOINT RightHandIndex1
                {
                  OFFSET -9.1083 -0.5168 2.2601
                  CHANNELS 6 Xposition Yposition Zposition Zrotation Xrotation Yrotation
                  JOINT RightHandIndex2
                  {
                    OFFSET -3.6764 0 0
                    CHANNELS 6 Xposition Yposition Zposition Zrotation Xrotation Yrotation
                    JOINT RightHandIndex3
                    {
                      OFFSET -2.8831 0 0
                      CHANNELS 6 Xposition Yposition Zposition Zrotation Xrotation Yrotation
                      End Site
                      {
                        OFFSET -2.3927 0 0
                      }
                    }
                  }
                }
                JOINT RightHandThumb1
                {
                  OFFSET -2.4648 -1.5727 2.6826
                  CHANNELS 6 Xposition Yposition Zposition Zrotation Xrotation Yrotation
                  JOINT RightHandThumb2
                  {
                    OFFSET -3.2298 -1.8647 1.8647
                    CHANNELS 6 Xposition Yposition Zposition Zrotation Xrotation Yrotation
                    JOINT RightHandThumb3
                    {
                      OFFSET -2.6526 -1.5314 1.5314
                      CHANNELS 6 Xposition Yposition Zposition Zrotation Xrotation Yrotation
                      End Site
                      {
                        OFFSET -1.9546 -1.1285 1.1285
                      }
                    }
                  }
                }
              }
            }
          }
        }
      }
    }
  }
  JOINT LeftUpLeg
  {
    OFFSET 8.2078 -6.7517 -1.5996
    CHANNELS 6 Xposition Yposition Zposition Zrotation Xrotation Yrotation
    JOINT LeftLeg
    {
      OFFSET 0 -44.3705 0.2846
      CHANNELS 6 Xposition Yposition Zposition Zrotation Xrotation Yrotation
      JOINT LeftFoot
      {
        OFFSET 0 -44.4279 -2.9822
        CHANNELS 6 Xposition Yposition Zposition Zrotation Xrotation Yrotation
        JOINT LeftToeBase
        {
          OFFSET 0 -8.7287 10.7106
          CHANNELS 6 Xposition Yposition Zposition Zrotation Xrotation Yrotation
          End Site
          {
            OFFSET 0 -0.0007 9.2781
          }
        }
      }
    }
  }
  JOINT RightUpLeg
  {
    OFFSET -8.2078 -6.7517 -1.5996
    CHANNELS 6 Xposition Yposition Zposition Zrotation Xrotation Yrotation
    JOINT RightLeg
    {
      OFFSET 0 -44.3705 0.2862
      CHANNELS 6 Xposition Yposition Zposition Zrotation Xrotation Yrotation
      JOINT RightFoot
      {
        OFFSET 0 -44.4277 -2.9838
        CHANNELS 6 Xposition Yposition Zposition Zrotation Xrotation Yrotation
        JOINT RightToeBase
        {
          OFFSET 0 -8.7287 10.7106
          CHANNELS 6 Xposition Yposition Zposition Zrotation Xrotation Yrotation
          End Site
          {
            OFFSET 0 -0.0007 9.2781
          }
        }
      }
    }
  }
}
MOTION
Frames:	4
Frame Time:	0.0333333
-2.42244 100.435 -0.168581 -2.31416 1.32904 -91.8843 -4.44089e-016 10.1816 0.1315 2.54073 0.36618 0.657112 4.44089e-016 10.0835 -1.0008 2.11982 1.21956 1.45874 0 9.1 -1.3734 2.11226 1.17288 1.4997 0 16.6717 -2.5162 -4.44812 2.66902 8.69792 0 9.6179 1.685 -3.47576 4.29775 37.8002 1.77636e-015 17.8152 2.585 3.97569e-016 -1.59028e-015 -6.36111e-015 3.0676 6.4095 9.2836 3.97569e-016 -1.59028e-015 -6.36111e-015 -3.0676 6.4095 9.2835 3.97569e-016 -1.59028e-015 -6.36111e-015 4.5704 10.946 -2.628 -11.9765 1.05985 -2.03757 10.5924 -0.5246 -2.2321 -68.0721 -15.3732 -2.03948 27.8415 -0.0001 0 -0.000168363 7.82958e-006 -6.54528 28.3288 0 3.55271e-015 -22.064 3.29349 -0.894151 2.4661 -1.575 2.6824 -13.4991 7.30375 -0.465581 3.2298 -1.8647 1.8647 3.25521 3.0978 28.9849 2.6526 -1.5315 1.5315 25.3707 21.593 39.418 9.1093 -0.5171 2.2601 -68.4605 -5.88611 7.00224 3.6764 2.84217e-014 1.77636e-015 -88.1509 -5.66692 5.85249 2.8831 0 0 -71.3089 -3.97985 5.54573 9.5334 0 0 -64.7233 -5.47115 6.35388 3.6982 7.10543e-015 0 -94.3078 -6.29443 5.83897 2.9509 0 0 -50.4866 -2.12927 4.51422 9.1045 -0.0439 -1.8651 -68.5618 -5.89712 5.55502 3.154 0 0 -99.8273 -6.85224 5.76934 2.9377 0 0 -55.2303 -2.5159 4.80732 8.0778 -0.4887 -3.8061 -67.9416 -5.82532 4.4037 3.6 -1.42109e-014 1.77636e-015 -98.8692 -6.75598 5.78531 2.1142 7.10543e-015 1.77636e-015 -50.4874 -2.12933 4.51428 -4.57 10.9462 -2.628 11.481 4.30838 5.59474 -10.5928 -0.5248 -2.2321 52.9569 15.6098 -0.0496333 -27.8415 0 0 -8.48729e-006 -1.67271e-005 40.4247 -28.3288 0 0.0001 10.6011 11.4318 -24.8129 -8.0767 -0.4885 -3.806 27.4571 -1.53464 -4.13789 -3.6 0 0.0001 31.6892 -0.691334 -2.43716 -2.1142 0 0 55.6634 -2.02513 -3.83481 -9.1036 -0.0439 -1.8651 21.7752 -1.13411 -4.6642 -3.154 0 0 38.12 -0.990359 -2.86589 -2.9377 0 -3.55271e-015 37.4454 -0.956843 -2.82267 -9.5325 0 0 12.3299 -0.547942 -3.32771 -3.6982 0 0 32.2858 -0.717793 -2.47953 -2.9509 0 0 19.0691 -0.254698 -1.51833 -9.1083 -0.5168 2.2601 10.8933 -0.467509 -2.1816 -3.6764 7.10543e-015 -1.77636e-015 20.1881 -0.285154 -1.6017 -2.8831 -1.77636e-015 0 10.2997 -0.0747807 -0.829757 -2.4648 -1.5727 2.6826 -4.33569 -9.35209 3.14692 -3.2298 -1.8647 1.8647 -8.26259 15.9615 -26.858 -2.6526 -1.5314 1.5314 -15.5914 5.82031 -17.2295 8.2078 -6.7517 -1.5996 12.4054 -2.6812 13.7814 0 -44.3705 0.2846 2.61282 21.6202 -6.57409 3.55271e-015 -44.4279 -2.9822 -10.9187 -14.9468 -0.892987 0 -8.7287 10.7106 -0.000747367 -0.020209 -2.07468e-005 -8.2078 -6.7517 -1.5996 -8.47807 -5.36789 -9.39239 0 -44.3705 0.2862 -3.79404 21.6519 11.2098 3.55271e-015 -44.4277 -2.9838 8.9873 -14.203 1.16333 3.55271e-015 -8.7287 10.7106 5.59074e-006 -0.769978 -9.17165e-006 
-2.42427 100.432 -0.188541 -2.3243 1.33454 -91.9448 0 10.1816 0.1315 2.49474 0.342602 0.664565 -4.44089e-016 10.0835 -1.0008 2.05812 1.19215 1.47158 8.88178e-016 9.1 -1.3734 2.05014 1.14949 1.5117 0 16.6717 -2.5162 -4.46031 2.6337 8.70245 -4.44089e-016 9.6179 1.685 -3.50803 4.26882 37.8237 0 17.8152 2.585 -3.97569e-016 -1.19271e-015 3.18055e-015 3.0676 6.4095 9.2836 -3.97569e-016 -1.19271e-015 3.18055e-015 -3.0676 6.4095 9.2835 -3.97569e-016 -1.19271e-015 3.18055e-015 4.5704 10.946 -2.628 -11.9156 1.06163 -2.06588 10.5924 -0.5246 -2.2321 -68.12 -15.4162 -2.00631 27.8415 -0.0001 1.77636e-015 -0.000209466 -2.16456e-005 -6.51359 28.3288 7.10543e-015 0 -22.0431 3.29306 -0.921534 2.4661 -1.575 2.6824 -13.4991 7.30375 -0.465581 3.2298 -1.8647 1.8647 3.25521 3.0978 28.9849 2.6526 -1.5315 1.5315 25.3707 21.593 39.418 9.1093 -0.5171 2.2601 -68.4605 -5.88611 7.00224 3.6764 0 1.77636e-015 -88.1509 -5.66692 5.85249 2.8831 0 0 -71.3089 -3.97985 5.54573 9.5334 -7.10543e-015 3.55271e-015 -64.7233 -5.47115 6.35388 3.6982 1.42109e-014 -1.77636e-015 -94.3078 -6.29443 5.83897 2.9509 0 0 -50.4866 -2.12927 4.51422 9.1045 -0.0439 -1.8651 -68.5618 -5.89712 5.55502 3.154 -1.42109e-014 0 -99.8273 -6.85224 5.76934 2.9377 7.10543e-015 0 -55.2303 -2.5159 4.80732 8.0778 -0.4887 -3.8061 -67.9416 -5.82532 4.4037 3.6 0 -8.88178e-016 -98.8692 -6.75598 5.78531 2.1142 7.10543e-015 -1.77636e-015 -50.4874 -2.12933 4.51428 -4.57 10.9462 -2.628 11.4834 4.31268 5.58363 -10.5928 -0.5248 -2.2321 53.0989 15.2738 0.0839744 -27.8415 -7.10543e-015 0 -3.78721e-006 9.06339e-007 40.2367 -28.3288 0 0.0001 10.5763 11.4182 -24.7195 -8.0767 -0.4885 -3.806 28.9302 -1.64301 -5.13031 -3.6 0 0.0001 31.4493 -0.681168 -2.42057 -2.1142 -7.10543e-015 0 51.5254 -1.75502 -3.63552 -9.1036 -0.0439 -1.8651 23.1381 -1.22591 -5.45046 -3.154 0 0 37.7828 -0.973533 -2.84434 -2.9377 0 0 35.2576 -0.85171 -2.67979 -9.5325 0 1.77636e-015 13.1212 -0.592902 -3.67088 -3.6982 0 -3.55271e-015 32.847 -0.742289 -2.51787 -2.9509 -7.10543e-015 0 17.9076 -0.224855 -1.42908 -9.1083 -0.5168 2.2601 11.3101 -0.489523 -1.70056 -3.6764 0 -1.77636e-015 19.7701 -0.273584 -1.56988 -2.8831 1.77636e-015 -1.77636e-015 9.86366 -0.068603 -0.794987 -2.4648 -1.5727 2.6826 -3.86947 -9.68085 3.54862 -3.2298 -1.8647 1.8647 -7.55588 15.9283 -27.2677 -2.6526 -1.5314 1.5314 -16.1928 4.78936 -16.4439 8.2078 -6.7517 -1.5996 12.4532 -2.65282 13.9286 0 -44.3705 0.2846 2.57806 21.6323 -6.5463 3.55271e-015 -44.4279 -2.9822 -10.9223 -14.9367 -0.891759 0 -8.7287 10.7106 0.00160926 -0.0168858 2.58251e-005 -8.2078 -6.7517 -1.5996 -8.44714 -5.38692 -9.28877 0 -44.3705 0.2862 -3.79625 21.6861 11.1947 0 -44.4277 -2.9838 8.97711 -14.2205 1.12195 0 -8.7287 10.7106 -3.82809e-006 -0.79952 -1.662e-005 
-2.42175 100.43 -0.219678 -2.35207 1.37427 -91.9667 -4.44089e-016 10.1816 0.1315 2.45718 0.334453 0.668631 4.44089e-016 10.0835 -1.0008 2.00849 1.17434 1.47888 8.88178e-016 9.1 -1.3734 2.00035 1.13839 1.51823 0 16.6717 -2.5162 -4.4802 2.59331 8.71065 -2.22045e-016 9.6179 1.685 -3.5601 4.31637 37.87 0 17.8152 2.585 1.19271e-015 0 -3.18055e-015 3.0676 6.4095 9.2836 1.19271e-015 0 -3.18055e-015 -3.0676 6.4095 9.2835 1.19271e-015 0 -3.18055e-015 4.5704 10.946 -2.628 -11.8258 1.05953 -2.08237 10.5924 -0.5246 -2.2321 -68.1961 -15.4363 -2.01106 27.8415 -0.0001 0 -0.000235905 -5.74768e-007 -6.47862 28.3288 -7.10543e-015 -3.55271e-015 -22.0101 3.27899 -0.914548 2.4661 -1.575 2.6824 -13.4991 7.30375 -0.465581 3.2298 -1.8647 1.8647 3.25521 3.0978 28.9849 2.6526 -1.5315 1.5315 25.3707 21.593 39.418 9.1093 -0.5171 2.2601 -68.4605 -5.88611 7.00224 3.6764 1.42109e-014 0 -88.1509 -5.66692 5.85249 2.8831 0 0 -71.3089 -3.97985 5.54573 9.5334 0 3.55271e-015 -64.7233 -5.47115 6.35388 3.6982 -1.42109e-014 -1.77636e-015 -94.3078 -6.29443 5.83897 2.9509 0 -1.77636e-015 -50.4866 -2.12927 4.51422 9.1045 -0.0439 -1.8651 -68.5618 -5.89712 5.55502 3.154 0 0 -99.8273 -6.85224 5.76934 2.9377 0 0 -55.2303 -2.5159 4.80732 8.0778 -0.4887 -3.8061 -67.9416 -5.82532 4.4037 3.6 1.42109e-014 0 -98.8692 -6.75598 5.78531 2.1142 0 -1.77636e-015 -50.4874 -2.12933 4.51428 -4.57 10.9462 -2.628 11.4893 4.3242 5.56526 -10.5928 -0.5248 -2.2321 53.2599 14.3974 0.212399 -27.8415 7.10543e-015 -3.55271e-015 -7.07988e-006 -1.25552e-005 39.998 -28.3288 0 0.0001 10.0894 10.8727 -24.2335 -8.0767 -0.4885 -3.806 31.1663 -1.80915 -6.60706 -3.6 -1.77636e-015 0.0001 31.1208 -0.667345 -2.3978 -2.1142 0 -3.55271e-015 45.3651 -1.38127 -3.3041 -9.1036 -0.0439 -1.8651 25.2122 -1.36811 -6.61295 -3.154 -3.55271e-015 1.77636e-015 37.3114 -0.950257 -2.81401 -2.9377 1.42109e-014 -1.77636e-015 32.0109 -0.705941 -2.46067 -9.5325 7.10543e-015 -3.55271e-015 14.3514 -0.664167 -4.17612 -3.6982 0 0 33.7388 -0.781971 -2.5783 -2.9509 0 1.77636e-015 16.1983 -0.184244 -1.29668 -9.1083 -0.5168 2.2601 11.9814 -0.524919 -0.998441 -3.6764 0 0 19.2236 -0.258805 -1.52814 -2.8831 -1.77636e-015 -1.77636e-015 9.23122 -0.0601056 -0.744468 -2.4648 -1.5727 2.6826 -3.198 -10.1548 4.11779 -3.2298 -1.8647 1.8647 -6.49735 15.8722 -27.8343 -2.6526 -1.5314 1.5314 -17.0673 3.25998 -15.282 8.2078 -6.7517 -1.5996 12.5319 -2.60844 13.9809 -3.55271e-015 -44.3705 0.2846 2.57479 21.6259 -6.70768 0 -44.4279 -2.9822 -10.9141 -14.9529 -0.894812 0 -8.7287 10.7106 0.00158343 -0.0216821 5.3328e-006 -8.2078 -6.7517 -1.5996 -8.37929 -5.36999 -9.22863 -3.55271e-015 -44.3705 0.2862 -3.8056 21.6979 11.2033 3.55271e-015 -44.4277 -2.9838 9.0301 -14.2146 1.10347 0 -8.7287 10.7106 -1.29213e-006 -0.812979 1.41543e-005 
-2.41149 100.429 -0.236005 -2.4231 1.40194 -91.9703 -4.44089e-016 10.1816 0.1315 2.40819 0.352729 0.67432 -4.44089e-016 10.0835 -1.0008 1.95507 1.20435 1.49102 0 9.1 -1.3734 1.94704 1.17099 1.53021 0 16.6717 -2.5162 -4.53113 2.51075 8.7572 0 9.6179 1.685 -3.59274 4.28867 38.0215 0 17.8152 2.585 -3.97569e-016 -1.59028e-015 -6.36111e-015 3.0676 6.4095 9.2836 -3.97569e-016 -1.59028e-015 -6.36111e-015 -3.0676 6.4095 9.2835 -3.97569e-016 -1.59028e-015 -6.36111e-015 4.5704 10.946 -2.628 -11.8251 1.06453 -2.09977 10.5924 -0.5246 -2.2321 -68.1978 -15.4138 -2.08262 27.8415 -0.0001 0 -0.000175229 1.74552e-005 -6.48386 28.3288 -7.10543e-015 -3.55271e-015 -21.9516 3.20424 -0.906056 2.4661 -1.575 2.6824 -13.4991 7.30375 -0.465581 3.2298 -1.8647 1.8647 3.25521 3.0978 28.9849 2.6526 -1.5315 1.5315 25.3707 21.593 39.418 9.1093 -0.5171 2.2601 -68.4605 -5.88611 7.00224 3.6764 0 0 -88.1509 -5.66692 5.85249 2.8831 0 -1.77636e-015 -71.3089 -3.97985 5.54573 9.5334 0 0 -64.7233 -5.47115 6.35388 3.6982 -7.10543e-015 0 -94.3078 -6.29443 5.83897 2.9509 0 0 -50.4866 -2.12927 4.51422 9.1045 -0.0439 -1.8651 -68.5618 -5.89712 5.55502 3.154 -2.84217e-014 0 -99.8273 -6.85224 5.76934 2.9377 0 1.77636e-015 -55.2303 -2.5159 4.80732 8.0778 -0.4887 -3.8061 -67.9416 -5.82532 4.4037 3.6 0 8.88178e-016 -98.8692 -6.75598 5.78531 2.1142 0 0 -50.4874 -2.12933 4.51428 -4.57 10.9462 -2.628 11.4865 4.33894 5.54465 -10.5928 -0.5248 -2.2321 53.2962 12.7089 0.464026 -27.8415 0 -3.55271e-015 -1.09353e-005 6.13767e-006 39.7161 -28.3288 0 0.0001 8.84408 8.855 -23.0792 -8.0767 -0.4885 -3.806 33.9858 -2.02125 -8.42198 -3.6 7.10543e-015 0.0001 30.7621 -0.652404 -2.37286 -2.1142 0 3.55271e-015 37.7844 -0.973622 -2.84445 -9.1036 -0.0439 -1.8651 27.836 -1.5522 -8.02965 -3.154 0 -1.77636e-015 36.7801 -0.924298 -2.77966 -2.9377 0 0 28.032 -0.544603 -2.18147 -9.5325 0 3.55271e-015 15.9475 -0.759074 -4.78846 -3.6982 0 3.55271e-015 34.9259 -0.83625 -2.65779 -2.9509 7.10543e-015 0 14.1265 -0.140356 -1.13471 -9.1083 -0.5168 2.2601 12.8879 -0.572829 -0.156542 -3.6764 0 1.77636e-015 18.6713 -0.244261 -1.48582 -2.8831 1.77636e-015 -1.77636e-015 8.47944 -0.0507302 -0.684293 -2.4648 -1.5727 2.6826 -2.40778 -10.7137 4.77208 -3.2298 -1.8647 1.8647 -5.18495 15.7926 -28.4626 -2.6526 -1.5314 1.5314 -18.1107 1.38702 -13.8635 8.2078 -6.7517 -1.5996 12.5822 -2.5429 14.0087 3.55271e-015 -44.3705 0.2846 2.56629 21.6414 -6.74019 0 -44.4279 -2.9822 -10.9146 -14.9583 -0.893036 3.55271e-015 -8.7287 10.7106 0.000410652 -0.0204213 1.64018e-005 -8.2078 -6.7517 -1.5996 -8.31975 -5.31027 -9.19661 -3.55271e-015 -44.3705 0.2862 -3.83335 21.7117 11.2156 -3.55271e-015 -44.4277 -2.9838 9.00187 -14.2261 1.04871 -3.55271e-015 -8.7287 10.7106 2.03721e-006 -0.811533 -7.25133e-006 
